<?xml version="1.0" encoding="UTF-8"?>
<svg id="Layer_2" data-name="Layer 2" xmlns="http://www.w3.org/2000/svg" viewBox="0 0 61.3 61.3">
  <defs>
    <style>
      .cls-1 {
        fill: #fff;
      }
    </style>
  </defs>
  <g id="Layer_1-2" data-name="Layer 1">
    <g>
      <path class="cls-1" d="M57.88,16.54l-3.92,4.69c1.18,2.91,1.83,6.09,1.83,9.41,0,13.86-11.28,25.14-25.14,25.14S5.51,44.52,5.51,30.65,16.79,5.51,30.65,5.51c5.44,0,10.47,1.73,14.59,4.68l3.55-4.25C43.56,2.08,37.27,0,30.65,0,22.46,0,14.77,3.19,8.98,8.98,3.19,14.77,0,22.46,0,30.65s3.19,15.89,8.98,21.67c5.79,5.79,13.49,8.98,21.67,8.98s15.89-3.19,21.67-8.98c5.79-5.79,8.98-13.49,8.98-21.67,0-4.99-1.18-9.8-3.42-14.11Z"/>
      <path class="cls-1" d="M28.2,44.12c-.73,0-1.43-.29-1.95-.81l-10.47-10.47c-1.08-1.08-1.08-2.82,0-3.9,1.08-1.08,2.82-1.08,3.9,0l8.33,8.33L54.02,6.12c.98-1.17,2.71-1.32,3.88-.35,1.17,.98,1.32,2.71,.35,3.88L30.31,43.13c-.5,.59-1.22,.95-1.99,.99-.04,0-.08,0-.12,0Z"/>
    </g>
  </g>
</svg>